<svg width="371" height="29" viewBox="0 0 371 29" fill="none" xmlns="http://www.w3.org/2000/svg">
<path d="M0.942149 23V2H5.80215V23H0.942149ZM20.2659 6.62C21.5459 6.62 22.6859 6.88 23.6859 7.4C24.7059 7.9 25.5059 8.68 26.0859 9.74C26.6659 10.78 26.9559 12.12 26.9559 13.76V23H22.2759V14.48C22.2759 13.18 21.9859 12.22 21.4059 11.6C20.8459 10.98 20.0459 10.67 19.0059 10.67C18.2659 10.67 17.5959 10.83 16.9959 11.15C16.4159 11.45 15.9559 11.92 15.6159 12.56C15.2959 13.2 15.1359 14.02 15.1359 15.02V23H10.4559V6.86H14.9259V11.33L14.0859 9.98C14.6659 8.9 15.4959 8.07 16.5759 7.49C17.6559 6.91 18.8859 6.62 20.2659 6.62ZM36.6281 23.24C35.2481 23.24 33.9181 23.08 32.6381 22.76C31.3781 22.42 30.3781 22 29.6381 21.5L31.1981 18.14C31.9381 18.6 32.8081 18.98 33.8081 19.28C34.8281 19.56 35.8281 19.7 36.8081 19.7C37.8881 19.7 38.6481 19.57 39.0881 19.31C39.5481 19.05 39.7781 18.69 39.7781 18.23C39.7781 17.85 39.5981 17.57 39.2381 17.39C38.8981 17.19 38.4381 17.04 37.8581 16.94C37.2781 16.84 36.6381 16.74 35.9381 16.64C35.2581 16.54 34.5681 16.41 33.8681 16.25C33.1681 16.07 32.5281 15.81 31.9481 15.47C31.3681 15.13 30.8981 14.67 30.5381 14.09C30.1981 13.51 30.0281 12.76 30.0281 11.84C30.0281 10.82 30.3181 9.92 30.8981 9.14C31.4981 8.36 32.3581 7.75 33.4781 7.31C34.5981 6.85 35.9381 6.62 37.4981 6.62C38.5981 6.62 39.7181 6.74 40.8581 6.98C41.9981 7.22 42.9481 7.57 43.7081 8.03L42.1481 11.36C41.3681 10.9 40.5781 10.59 39.7781 10.43C38.9981 10.25 38.2381 10.16 37.4981 10.16C36.4581 10.16 35.6981 10.3 35.2181 10.58C34.7381 10.86 34.4981 11.22 34.4981 11.66C34.4981 12.06 34.6681 12.36 35.0081 12.56C35.3681 12.76 35.8381 12.92 36.4181 13.04C36.9981 13.16 37.6281 13.27 38.3081 13.37C39.0081 13.45 39.7081 13.58 40.4081 13.76C41.1081 13.94 41.7381 14.2 42.2981 14.54C42.8781 14.86 43.3481 15.31 43.7081 15.89C44.0681 16.45 44.2481 17.19 44.2481 18.11C44.2481 19.11 43.9481 20 43.3481 20.78C42.7481 21.54 41.8781 22.14 40.7381 22.58C39.6181 23.02 38.2481 23.24 36.6281 23.24ZM53.7356 23.24C51.8356 23.24 50.3556 22.76 49.2956 21.8C48.2356 20.82 47.7056 19.37 47.7056 17.45V3.29H52.3856V17.39C52.3856 18.07 52.5656 18.6 52.9256 18.98C53.2856 19.34 53.7756 19.52 54.3956 19.52C55.1356 19.52 55.7656 19.32 56.2856 18.92L57.5456 22.22C57.0656 22.56 56.4856 22.82 55.8056 23C55.1456 23.16 54.4556 23.24 53.7356 23.24ZM45.2156 10.82V7.22H56.4056V10.82H45.2156ZM70.0727 23V19.85L69.7727 19.16V13.52C69.7727 12.52 69.4627 11.74 68.8427 11.18C68.2427 10.62 67.3127 10.34 66.0527 10.34C65.1927 10.34 64.3427 10.48 63.5027 10.76C62.6827 11.02 61.9827 11.38 61.4027 11.84L59.7227 8.57C60.6027 7.95 61.6627 7.47 62.9027 7.13C64.1427 6.79 65.4027 6.62 66.6827 6.62C69.1427 6.62 71.0527 7.2 72.4127 8.36C73.7727 9.52 74.4527 11.33 74.4527 13.79V23H70.0727ZM65.1527 23.24C63.8927 23.24 62.8127 23.03 61.9127 22.61C61.0127 22.17 60.3227 21.58 59.8427 20.84C59.3627 20.1 59.1227 19.27 59.1227 18.35C59.1227 17.39 59.3527 16.55 59.8127 15.83C60.2927 15.11 61.0427 14.55 62.0627 14.15C63.0827 13.73 64.4127 13.52 66.0527 13.52H70.3427V16.25H66.5627C65.4627 16.25 64.7027 16.43 64.2827 16.79C63.8827 17.15 63.6827 17.6 63.6827 18.14C63.6827 18.74 63.9127 19.22 64.3727 19.58C64.8527 19.92 65.5027 20.09 66.3227 20.09C67.1027 20.09 67.8027 19.91 68.4227 19.55C69.0427 19.17 69.4927 18.62 69.7727 17.9L70.4927 20.06C70.1527 21.1 69.5327 21.89 68.6327 22.43C67.7327 22.97 66.5727 23.24 65.1527 23.24ZM85.9183 23.36C84.2383 23.36 82.6283 23.14 81.0883 22.7C79.5483 22.24 78.3083 21.65 77.3683 20.93L79.0183 17.27C79.9183 17.91 80.9783 18.44 82.1983 18.86C83.4383 19.26 84.6883 19.46 85.9483 19.46C86.9083 19.46 87.6783 19.37 88.2583 19.19C88.8583 18.99 89.2983 18.72 89.5783 18.38C89.8583 18.04 89.9983 17.65 89.9983 17.21C89.9983 16.65 89.7783 16.21 89.3383 15.89C88.8983 15.55 88.3183 15.28 87.5983 15.08C86.8783 14.86 86.0783 14.66 85.1983 14.48C84.3383 14.28 83.4683 14.04 82.5883 13.76C81.7283 13.48 80.9383 13.12 80.2183 12.68C79.4983 12.24 78.9083 11.66 78.4483 10.94C78.0083 10.22 77.7883 9.3 77.7883 8.18C77.7883 6.98 78.1083 5.89 78.7483 4.91C79.4083 3.91 80.3883 3.12 81.6883 2.54C83.0083 1.94 84.6583 1.64 86.6383 1.64C87.9583 1.64 89.2583 1.8 90.5383 2.12C91.8183 2.42 92.9483 2.88 93.9283 3.5L92.4283 7.19C91.4483 6.63 90.4683 6.22 89.4883 5.96C88.5083 5.68 87.5483 5.54 86.6083 5.54C85.6683 5.54 84.8983 5.65 84.2983 5.87C83.6983 6.09 83.2683 6.38 83.0083 6.74C82.7483 7.08 82.6183 7.48 82.6183 7.94C82.6183 8.48 82.8383 8.92 83.2783 9.26C83.7183 9.58 84.2983 9.84 85.0183 10.04C85.7383 10.24 86.5283 10.44 87.3883 10.64C88.2683 10.84 89.1383 11.07 89.9983 11.33C90.8783 11.59 91.6783 11.94 92.3983 12.38C93.1183 12.82 93.6983 13.4 94.1383 14.12C94.5983 14.84 94.8283 15.75 94.8283 16.85C94.8283 18.03 94.4983 19.11 93.8383 20.09C93.1783 21.07 92.1883 21.86 90.8683 22.46C89.5683 23.06 87.9183 23.36 85.9183 23.36ZM104.689 23.24C103.169 23.24 101.799 22.9 100.579 22.22C99.3592 21.54 98.3892 20.58 97.6692 19.34C96.9692 18.1 96.6192 16.63 96.6192 14.93C96.6192 13.25 96.9692 11.79 97.6692 10.55C98.3892 9.31 99.3592 8.35 100.579 7.67C101.799 6.97 103.169 6.62 104.689 6.62C106.109 6.62 107.319 6.92 108.319 7.52C109.339 8.12 110.119 9.03 110.659 10.25C111.199 11.47 111.469 13.03 111.469 14.93C111.469 16.81 111.189 18.37 110.629 19.61C110.069 20.83 109.279 21.74 108.259 22.34C107.239 22.94 106.049 23.24 104.689 23.24ZM105.499 19.4C106.259 19.4 106.949 19.22 107.569 18.86C108.189 18.5 108.679 17.99 109.039 17.33C109.419 16.65 109.609 15.85 109.609 14.93C109.609 13.99 109.419 13.19 109.039 12.53C108.679 11.87 108.189 11.36 107.569 11C106.949 10.64 106.259 10.46 105.499 10.46C104.719 10.46 104.019 10.64 103.399 11C102.779 11.36 102.279 11.87 101.899 12.53C101.539 13.19 101.359 13.99 101.359 14.93C101.359 15.85 101.539 16.65 101.899 17.33C102.279 17.99 102.779 18.5 103.399 18.86C104.019 19.22 104.719 19.4 105.499 19.4ZM109.519 28.82V19.73L109.819 14.96L109.729 10.16V6.86H114.199V28.82H109.519ZM125.342 23.24C124.002 23.24 122.802 22.98 121.742 22.46C120.702 21.94 119.892 21.15 119.312 20.09C118.732 19.01 118.442 17.64 118.442 15.98V6.86H123.122V15.29C123.122 16.63 123.402 17.62 123.962 18.26C124.542 18.88 125.352 19.19 126.392 19.19C127.112 19.19 127.752 19.04 128.312 18.74C128.872 18.42 129.312 17.94 129.632 17.3C129.952 16.64 130.112 15.82 130.112 14.84V6.86H134.792V23H130.352V18.56L131.162 19.85C130.622 20.97 129.822 21.82 128.762 22.4C127.722 22.96 126.582 23.24 125.342 23.24ZM149.028 23V19.85L148.728 19.16V13.52C148.728 12.52 148.418 11.74 147.798 11.18C147.198 10.62 146.268 10.34 145.008 10.34C144.148 10.34 143.298 10.48 142.458 10.76C141.638 11.02 140.938 11.38 140.358 11.84L138.678 8.57C139.558 7.95 140.618 7.47 141.858 7.13C143.098 6.79 144.358 6.62 145.638 6.62C148.098 6.62 150.008 7.2 151.368 8.36C152.728 9.52 153.408 11.33 153.408 13.79V23H149.028ZM144.108 23.24C142.848 23.24 141.768 23.03 140.868 22.61C139.968 22.17 139.278 21.58 138.798 20.84C138.318 20.1 138.078 19.27 138.078 18.35C138.078 17.39 138.308 16.55 138.768 15.83C139.248 15.11 139.998 14.55 141.018 14.15C142.038 13.73 143.368 13.52 145.008 13.52H149.298V16.25H145.518C144.418 16.25 143.658 16.43 143.238 16.79C142.838 17.15 142.638 17.6 142.638 18.14C142.638 18.74 142.868 19.22 143.328 19.58C143.808 19.92 144.458 20.09 145.278 20.09C146.058 20.09 146.758 19.91 147.378 19.55C147.998 19.17 148.448 18.62 148.728 17.9L149.448 20.06C149.108 21.1 148.488 21.89 147.588 22.43C146.688 22.97 145.528 23.24 144.108 23.24ZM164.691 23.24C163.171 23.24 161.801 22.9 160.581 22.22C159.361 21.52 158.391 20.55 157.671 19.31C156.971 18.07 156.621 16.61 156.621 14.93C156.621 13.23 156.971 11.76 157.671 10.52C158.391 9.28 159.361 8.32 160.581 7.64C161.801 6.96 163.171 6.62 164.691 6.62C166.051 6.62 167.241 6.92 168.261 7.52C169.281 8.12 170.071 9.03 170.631 10.25C171.191 11.47 171.471 13.03 171.471 14.93C171.471 16.81 171.201 18.37 170.661 19.61C170.121 20.83 169.341 21.74 168.321 22.34C167.321 22.94 166.111 23.24 164.691 23.24ZM165.501 19.4C166.261 19.4 166.951 19.22 167.571 18.86C168.191 18.5 168.681 17.99 169.041 17.33C169.421 16.65 169.611 15.85 169.611 14.93C169.611 13.99 169.421 13.19 169.041 12.53C168.681 11.87 168.191 11.36 167.571 11C166.951 10.64 166.261 10.46 165.501 10.46C164.721 10.46 164.021 10.64 163.401 11C162.781 11.36 162.281 11.87 161.901 12.53C161.541 13.19 161.361 13.99 161.361 14.93C161.361 15.85 161.541 16.65 161.901 17.33C162.281 17.99 162.781 18.5 163.401 18.86C164.021 19.22 164.721 19.4 165.501 19.4ZM169.731 23V19.7L169.821 14.9L169.521 10.13V0.739999H174.201V23H169.731ZM187.579 23V2H196.429C198.669 2 200.639 2.44 202.339 3.32C204.059 4.2 205.389 5.43 206.329 7.01C207.289 8.59 207.769 10.42 207.769 12.5C207.769 14.58 207.289 16.41 206.329 17.99C205.389 19.57 204.059 20.8 202.339 21.68C200.639 22.56 198.669 23 196.429 23H187.579ZM190.579 20.39H196.249C197.989 20.39 199.489 20.06 200.749 19.4C202.029 18.74 203.019 17.82 203.719 16.64C204.419 15.44 204.769 14.06 204.769 12.5C204.769 10.92 204.419 9.54 203.719 8.36C203.019 7.18 202.029 6.26 200.749 5.6C199.489 4.94 197.989 4.61 196.249 4.61H190.579V20.39ZM218.754 23.18C217.154 23.18 215.734 22.83 214.494 22.13C213.254 21.43 212.274 20.47 211.554 19.25C210.834 18.01 210.474 16.61 210.474 15.05C210.474 13.47 210.834 12.07 211.554 10.85C212.274 9.63 213.254 8.68 214.494 8C215.734 7.3 217.154 6.95 218.754 6.95C220.334 6.95 221.744 7.3 222.984 8C224.244 8.68 225.224 9.63 225.924 10.85C226.644 12.05 227.004 13.45 227.004 15.05C227.004 16.63 226.644 18.03 225.924 19.25C225.224 20.47 224.244 21.43 222.984 22.13C221.744 22.83 220.334 23.18 218.754 23.18ZM218.754 20.66C219.774 20.66 220.684 20.43 221.484 19.97C222.304 19.51 222.944 18.86 223.404 18.02C223.864 17.16 224.094 16.17 224.094 15.05C224.094 13.91 223.864 12.93 223.404 12.11C222.944 11.27 222.304 10.62 221.484 10.16C220.684 9.7 219.774 9.47 218.754 9.47C217.734 9.47 216.824 9.7 216.024 10.16C215.224 10.62 214.584 11.27 214.104 12.11C213.624 12.93 213.384 13.91 213.384 15.05C213.384 16.17 213.624 17.16 214.104 18.02C214.584 18.86 215.224 19.51 216.024 19.97C216.824 20.43 217.734 20.66 218.754 20.66ZM233.907 23L227.997 7.1H230.727L235.977 21.5H234.687L240.147 7.1H242.577L247.917 21.5H246.657L252.027 7.1H254.607L248.667 23H245.907L240.897 9.86H241.737L236.667 23H233.907ZM266.02 6.95C267.32 6.95 268.46 7.2 269.44 7.7C270.44 8.2 271.22 8.96 271.78 9.98C272.34 11 272.62 12.29 272.62 13.85V23H269.74V14.18C269.74 12.64 269.36 11.48 268.6 10.7C267.86 9.92 266.81 9.53 265.45 9.53C264.43 9.53 263.54 9.73 262.78 10.13C262.02 10.53 261.43 11.12 261.01 11.9C260.61 12.68 260.41 13.65 260.41 14.81V23H257.53V7.1H260.29V11.39L259.84 10.25C260.36 9.21 261.16 8.4 262.24 7.82C263.32 7.24 264.58 6.95 266.02 6.95ZM277.95 23V0.739999H280.83V23H277.95ZM293.139 23.18C291.539 23.18 290.119 22.83 288.879 22.13C287.639 21.43 286.659 20.47 285.939 19.25C285.219 18.01 284.859 16.61 284.859 15.05C284.859 13.47 285.219 12.07 285.939 10.85C286.659 9.63 287.639 8.68 288.879 8C290.119 7.3 291.539 6.95 293.139 6.95C294.719 6.95 296.129 7.3 297.369 8C298.629 8.68 299.609 9.63 300.309 10.85C301.029 12.05 301.389 13.45 301.389 15.05C301.389 16.63 301.029 18.03 300.309 19.25C299.609 20.47 298.629 21.43 297.369 22.13C296.129 22.83 294.719 23.18 293.139 23.18ZM293.139 20.66C294.159 20.66 295.069 20.43 295.869 19.97C296.689 19.51 297.329 18.86 297.789 18.02C298.249 17.16 298.479 16.17 298.479 15.05C298.479 13.91 298.249 12.93 297.789 12.11C297.329 11.27 296.689 10.62 295.869 10.16C295.069 9.7 294.159 9.47 293.139 9.47C292.119 9.47 291.209 9.7 290.409 10.16C289.609 10.62 288.969 11.27 288.489 12.11C288.009 12.93 287.769 13.91 287.769 15.05C287.769 16.17 288.009 17.16 288.489 18.02C288.969 18.86 289.609 19.51 290.409 19.97C291.209 20.43 292.119 20.66 293.139 20.66ZM315.095 23V19.64L314.945 19.01V13.28C314.945 12.06 314.585 11.12 313.865 10.46C313.165 9.78 312.105 9.44 310.685 9.44C309.745 9.44 308.825 9.6 307.925 9.92C307.025 10.22 306.265 10.63 305.645 11.15L304.445 8.99C305.265 8.33 306.245 7.83 307.385 7.49C308.545 7.13 309.755 6.95 311.015 6.95C313.195 6.95 314.875 7.48 316.055 8.54C317.235 9.6 317.825 11.22 317.825 13.4V23H315.095ZM309.875 23.18C308.695 23.18 307.655 22.98 306.755 22.58C305.875 22.18 305.195 21.63 304.715 20.93C304.235 20.21 303.995 19.4 303.995 18.5C303.995 17.64 304.195 16.86 304.595 16.16C305.015 15.46 305.685 14.9 306.605 14.48C307.545 14.06 308.805 13.85 310.385 13.85H315.425V15.92H310.505C309.065 15.92 308.095 16.16 307.595 16.64C307.095 17.12 306.845 17.7 306.845 18.38C306.845 19.16 307.155 19.79 307.775 20.27C308.395 20.73 309.255 20.96 310.355 20.96C311.435 20.96 312.375 20.72 313.175 20.24C313.995 19.76 314.585 19.06 314.945 18.14L315.515 20.12C315.135 21.06 314.465 21.81 313.505 22.37C312.545 22.91 311.335 23.18 309.875 23.18ZM329.725 23.18C328.185 23.18 326.805 22.84 325.585 22.16C324.385 21.48 323.435 20.53 322.735 19.31C322.035 18.09 321.685 16.67 321.685 15.05C321.685 13.43 322.035 12.02 322.735 10.82C323.435 9.6 324.385 8.65 325.585 7.97C326.805 7.29 328.185 6.95 329.725 6.95C331.065 6.95 332.275 7.25 333.355 7.85C334.435 8.45 335.295 9.35 335.935 10.55C336.595 11.75 336.925 13.25 336.925 15.05C336.925 16.85 336.605 18.35 335.965 19.55C335.345 20.75 334.495 21.66 333.415 22.28C332.335 22.88 331.105 23.18 329.725 23.18ZM329.965 20.66C330.965 20.66 331.865 20.43 332.665 19.97C333.485 19.51 334.125 18.86 334.585 18.02C335.065 17.16 335.305 16.17 335.305 15.05C335.305 13.91 335.065 12.93 334.585 12.11C334.125 11.27 333.485 10.62 332.665 10.16C331.865 9.7 330.965 9.47 329.965 9.47C328.945 9.47 328.035 9.7 327.235 10.16C326.435 10.62 325.795 11.27 325.315 12.11C324.835 12.93 324.595 13.91 324.595 15.05C324.595 16.17 324.835 17.16 325.315 18.02C325.795 18.86 326.435 19.51 327.235 19.97C328.035 20.43 328.945 20.66 329.965 20.66ZM335.395 23V18.71L335.575 15.02L335.275 11.33V0.739999H338.155V23H335.395ZM350.684 23.18C348.984 23.18 347.484 22.83 346.184 22.13C344.904 21.43 343.904 20.47 343.184 19.25C342.484 18.03 342.134 16.63 342.134 15.05C342.134 13.47 342.474 12.07 343.154 10.85C343.854 9.63 344.804 8.68 346.004 8C347.224 7.3 348.594 6.95 350.114 6.95C351.654 6.95 353.014 7.29 354.194 7.97C355.374 8.65 356.294 9.61 356.954 10.85C357.634 12.07 357.974 13.5 357.974 15.14C357.974 15.26 357.964 15.4 357.944 15.56C357.944 15.72 357.934 15.87 357.914 16.01H344.384V13.94H356.414L355.244 14.66C355.264 13.64 355.054 12.73 354.614 11.93C354.174 11.13 353.564 10.51 352.784 10.07C352.024 9.61 351.134 9.38 350.114 9.38C349.114 9.38 348.224 9.61 347.444 10.07C346.664 10.51 346.054 11.14 345.614 11.96C345.174 12.76 344.954 13.68 344.954 14.72V15.2C344.954 16.26 345.194 17.21 345.674 18.05C346.174 18.87 346.864 19.51 347.744 19.97C348.624 20.43 349.634 20.66 350.774 20.66C351.714 20.66 352.564 20.5 353.324 20.18C354.104 19.86 354.784 19.38 355.364 18.74L356.954 20.6C356.234 21.44 355.334 22.08 354.254 22.52C353.194 22.96 352.004 23.18 350.684 23.18ZM361.973 23V7.1H364.733V11.42L364.463 10.34C364.903 9.24 365.643 8.4 366.683 7.82C367.723 7.24 369.003 6.95 370.523 6.95V9.74C370.403 9.72 370.283 9.71 370.163 9.71C370.063 9.71 369.963 9.71 369.863 9.71C368.323 9.71 367.103 10.17 366.203 11.09C365.303 12.01 364.853 13.34 364.853 15.08V23H361.973Z" fill="url(#paint0_linear_1_4)"/>
<defs>
<linearGradient id="paint0_linear_1_4" x1="-24" y1="82.4999" x2="427" y2="12.9999" gradientUnits="userSpaceOnUse">
<stop stop-color="#F3A378"/>
<stop offset="0.280988" stop-color="#E96E79"/>
<stop offset="0.552121" stop-color="#DF3A7B"/>
<stop offset="0.796963" stop-color="#9831A1"/>
<stop offset="1" stop-color="#555555" stop-opacity="0"/>
</linearGradient>
</defs>
</svg>
