<svg width="384" height="384" viewBox="0 0 384 384" fill="none" xmlns="http://www.w3.org/2000/svg">
<rect width="384" height="384" rx="70" fill="url(#paint0_linear_1_881)"/>
<rect x="75" y="75" width="234" height="234" rx="70" stroke="white" stroke-width="18"/>
<path d="M189.767 129.331C188.266 129.774 186.42 131.448 185.707 132.999L185.116 134.23V168.502C185.116 187.362 185.042 202.799 184.919 202.799C184.821 202.799 181.08 199.131 176.625 194.65C172.146 190.169 168.011 186.229 167.421 185.885C165.969 185.023 163.237 184.801 161.563 185.442C160.16 185.983 158.438 187.534 157.724 188.888C156.936 190.341 156.961 193.616 157.773 195.167C158.561 196.718 187.257 225.426 188.808 226.213C190.407 227.051 193.607 227.051 195.207 226.213C196.757 225.426 225.453 196.718 226.241 195.167C227.053 193.616 227.078 190.341 226.29 188.888C225.577 187.534 223.854 185.983 222.451 185.442C220.777 184.801 218.046 185.023 216.593 185.885C216.003 186.229 211.868 190.169 207.389 194.65C202.934 199.131 199.193 202.799 199.095 202.799C198.972 202.799 198.898 187.362 198.898 168.502V134.23L198.307 132.999C196.855 129.823 193.188 128.272 189.767 129.331Z" fill="white"/>
<path d="M134.54 213.114C132.178 213.729 130.036 215.674 129.397 217.841C128.929 219.392 128.855 227.714 129.273 230.767C130.996 243.151 140.841 253 153.22 254.723C155.878 255.092 228.136 255.092 230.794 254.723C243.173 253 253.018 243.151 254.74 230.767C255.159 227.714 255.085 219.392 254.617 217.841C254.15 216.241 252.525 214.394 250.877 213.606C248.243 212.351 244.896 213.089 242.829 215.404C241.204 217.226 240.983 218.21 240.983 223.849C240.983 230.742 240.245 233.18 237.217 236.43C235.544 238.227 233.969 239.31 231.68 240.197L230.031 240.837L192.745 240.911C156.247 240.96 155.435 240.96 153.54 240.468C150.956 239.827 149.184 238.769 147.092 236.676C143.794 233.352 143.031 230.939 143.031 223.849C143.031 218.21 142.81 217.226 141.185 215.404C139.536 213.582 136.632 212.572 134.54 213.114Z" fill="white"/>
<rect x="255" y="116" width="12" height="12" rx="6" stroke="white" stroke-width="12"/>
<defs>
<linearGradient id="paint0_linear_1_881" x1="-151.5" y1="575" x2="610.5" y2="-244.5" gradientUnits="userSpaceOnUse">
<stop stop-color="#F58529"/>
<stop offset="0.152425" stop-color="#FEDA77"/>
<stop offset="0.508775" stop-color="#DD2A7B"/>
<stop offset="0.694203" stop-color="#8134AF"/>
<stop offset="0.833692" stop-color="#515BD4"/>
<stop offset="1" stop-color="white" stop-opacity="0"/>
</linearGradient>
</defs>
</svg>
